<svg width="31" height="31" viewBox="0 0 31 31" fill="none" xmlns="http://www.w3.org/2000/svg">
<path d="M24 29H2V7H15.22L17.22 5H2C1.46957 5 0.960859 5.21071 0.585786 5.58579C0.210714 5.96086 0 6.46957 0 7V29C0 29.5304 0.210714 30.0391 0.585786 30.4142C0.960859 30.7893 1.46957 31 2 31H24C24.5304 31 25.0391 30.7893 25.4142 30.4142C25.7893 30.0391 26 29.5304 26 29V14L24 16V29Z" fill="black"/>
<path d="M29.53 4.84001L26.16 1.47001C26.0104 1.32004 25.8327 1.20105 25.6371 1.11986C25.4415 1.03868 25.2318 0.996887 25.02 0.996887C24.8082 0.996887 24.5984 1.03868 24.4028 1.11986C24.2072 1.20105 24.0295 1.32004 23.88 1.47001L10.17 15.26L9.05996 20.07C9.01267 20.3032 9.01764 20.5439 9.07451 20.7749C9.13139 21.0059 9.23875 21.2215 9.38888 21.406C9.53901 21.5906 9.72818 21.7396 9.94277 21.8423C10.1574 21.945 10.3921 21.9988 10.63 22C10.7529 22.0135 10.877 22.0135 11 22L15.85 20.93L29.53 7.12001C29.6799 6.97045 29.7989 6.79277 29.8801 6.59714C29.9613 6.40152 30.0031 6.1918 30.0031 5.98001C30.0031 5.76821 29.9613 5.55849 29.8801 5.36287C29.7989 5.16724 29.6799 4.98957 29.53 4.84001V4.84001ZM14.81 19.08L11.15 19.89L12 16.26L22.32 5.87001L25.14 8.69001L14.81 19.08ZM26.27 7.56001L23.45 4.74001L25 3.16001L27.84 6.00001L26.27 7.56001Z" fill="black"/>
</svg>

