<svg width="30" height="34" viewBox="0 0 30 34" fill="none" xmlns="http://www.w3.org/2000/svg">
<path d="M9.375 12.375C9.67337 12.375 9.95952 12.4935 10.1705 12.7045C10.3815 12.9155 10.5 13.2016 10.5 13.5V27C10.5 27.2984 10.3815 27.5845 10.1705 27.7955C9.95952 28.0065 9.67337 28.125 9.375 28.125C9.07663 28.125 8.79048 28.0065 8.57951 27.7955C8.36853 27.5845 8.25 27.2984 8.25 27V13.5C8.25 13.2016 8.36853 12.9155 8.57951 12.7045C8.79048 12.4935 9.07663 12.375 9.375 12.375ZM15 12.375C15.2984 12.375 15.5845 12.4935 15.7955 12.7045C16.0065 12.9155 16.125 13.2016 16.125 13.5V27C16.125 27.2984 16.0065 27.5845 15.7955 27.7955C15.5845 28.0065 15.2984 28.125 15 28.125C14.7016 28.125 14.4155 28.0065 14.2045 27.7955C13.9935 27.5845 13.875 27.2984 13.875 27V13.5C13.875 13.2016 13.9935 12.9155 14.2045 12.7045C14.4155 12.4935 14.7016 12.375 15 12.375ZM21.75 13.5C21.75 13.2016 21.6315 12.9155 21.4205 12.7045C21.2095 12.4935 20.9234 12.375 20.625 12.375C20.3266 12.375 20.0405 12.4935 19.8295 12.7045C19.6185 12.9155 19.5 13.2016 19.5 13.5V27C19.5 27.2984 19.6185 27.5845 19.8295 27.7955C20.0405 28.0065 20.3266 28.125 20.625 28.125C20.9234 28.125 21.2095 28.0065 21.4205 27.7955C21.6315 27.5845 21.75 27.2984 21.75 27V13.5Z" fill="black"/>
<path fill-rule="evenodd" clip-rule="evenodd" d="M29.625 6.75C29.625 7.34674 29.3879 7.91903 28.966 8.34099C28.544 8.76295 27.9717 9 27.375 9H26.25V29.25C26.25 30.4435 25.7759 31.5881 24.932 32.432C24.0881 33.2759 22.9435 33.75 21.75 33.75H8.25C7.05653 33.75 5.91193 33.2759 5.06802 32.432C4.22411 31.5881 3.75 30.4435 3.75 29.25V9H2.625C2.02826 9 1.45597 8.76295 1.03401 8.34099C0.612053 7.91903 0.375 7.34674 0.375 6.75V4.5C0.375 3.90326 0.612053 3.33097 1.03401 2.90901C1.45597 2.48705 2.02826 2.25 2.625 2.25H10.5C10.5 1.65326 10.7371 1.08097 11.159 0.65901C11.581 0.237053 12.1533 0 12.75 0L17.25 0C17.8467 0 18.419 0.237053 18.841 0.65901C19.2629 1.08097 19.5 1.65326 19.5 2.25H27.375C27.9717 2.25 28.544 2.48705 28.966 2.90901C29.3879 3.33097 29.625 3.90326 29.625 4.5V6.75ZM6.2655 9L6 9.13275V29.25C6 29.8467 6.23705 30.419 6.65901 30.841C7.08097 31.2629 7.65326 31.5 8.25 31.5H21.75C22.3467 31.5 22.919 31.2629 23.341 30.841C23.7629 30.419 24 29.8467 24 29.25V9.13275L23.7345 9H6.2655ZM2.625 6.75V4.5H27.375V6.75H2.625Z" fill="black"/>
</svg>

